<?xml version="1.0" encoding="utf-8"?>
<!-- Generator: Adobe Illustrator 26.2.1, SVG Export Plug-In . SVG Version: 6.00 Build 0)  -->
<svg version="1.1" xmlns="http://www.w3.org/2000/svg" xmlns:xlink="http://www.w3.org/1999/xlink" x="0px" y="0px"
	 viewBox="0 0 3200 2160" style="enable-background:new 0 0 3200 2160;" xml:space="preserve">
<style type="text/css">
	.st0{display:none;}
	.st1{display:inline;fill:#EBDBAD;}
	.st2{fill:#FFFFFF;}
</style>
<g id="Layer_3" class="st0">
	<rect class="st1" width="3200" height="2160"/>
</g>
<g id="Layer_1">
	<g>
		<path class="st2" d="M2528.66,914.19c0-1.58,1.42-3.01,3.01-3.01h18.83c1.74,0,3.01,1.42,3.01,3.01v39.88h45.25v-39.88
			c0-1.58,1.27-3.01,3.01-3.01h18.83c1.58,0,3.01,1.42,3.01,3.01v104.75c0,1.58-1.42,3.01-3.01,3.01h-18.83
			c-1.74,0-3.01-1.42-3.01-3.01v-41.62h-45.25v41.62c0,1.58-1.27,3.01-3.01,3.01h-18.83c-1.58,0-3.01-1.42-3.01-3.01V914.19z"/>
		<path class="st2" d="M2648.59,914.19c0-1.58,1.27-3.01,3.01-3.01h65.51c1.74,0,3.01,1.42,3.01,3.01v17.25
			c0,1.58-1.27,3.01-3.01,3.01h-43.83v19.62h36.08c1.58,0,3.01,1.42,3.01,3.01v17.25c0,1.74-1.42,3.01-3.01,3.01h-36.08v21.36h43.83
			c1.74,0,3.01,1.42,3.01,3.01v17.25c0,1.58-1.27,3.01-3.01,3.01h-65.51c-1.74,0-3.01-1.42-3.01-3.01V914.19z"/>
		<path class="st2" d="M2727.55,1017.83l49.53-106.49c0.47-0.95,1.58-1.74,2.69-1.74h1.58c1.11,0,2.21,0.79,2.69,1.74l49.53,106.49
			c0.95,2.06-0.32,4.11-2.69,4.11h-17.56c-2.85,0-4.11-0.95-5.54-3.96l-5.7-12.5h-43.04l-5.7,12.66c-0.79,1.9-2.53,3.8-5.7,3.8
			h-17.41C2727.86,1021.95,2726.6,1019.89,2727.55,1017.83z M2792.58,983.97l-12.03-26.11h-0.16l-11.87,26.11H2792.58z"/>
		<path class="st2" d="M2846.06,914.19c0-1.58,1.27-3.01,2.85-3.01h38.61c30.54,0,55.54,24.84,55.54,55.22
			c0,30.7-25,55.54-55.54,55.54h-38.61c-1.58,0-2.85-1.42-2.85-3.01V914.19z M2885.93,998.53c17.88,0,30.86-14.08,30.86-32.12
			c0-17.88-12.97-31.96-30.86-31.96h-15.19v64.08H2885.93z"/>
	</g>
	<path class="st2" d="M2472.42,972.58h-359.14c-4.14,0-7.5-3.36-7.5-7.5s3.36-7.5,7.5-7.5h359.14c4.14,0,7.5,3.36,7.5,7.5
		S2476.56,972.58,2472.42,972.58z"/>
	<g>
		<path class="st2" d="M2528.5,1564.88c0-1.58,1.42-2.85,3.01-2.85h3.96l63.13,60.76h0.16v-56.17c0-1.58,1.27-3.01,3.01-3.01h18.99
			c1.58,0,3.01,1.42,3.01,3.01v106.49c0,1.58-1.42,2.85-3.01,2.85h-2.53c-0.47,0-1.74-0.48-2.06-0.79l-62.5-62.82h-0.16v59.02
			c0,1.58-1.27,3.01-3.01,3.01h-18.83c-1.58,0-3.01-1.42-3.01-3.01L2528.5,1564.88z"/>
		<path class="st2" d="M2648.75,1566.62c0-1.58,1.27-3.01,3.01-3.01h65.51c1.74,0,3.01,1.42,3.01,3.01v17.25
			c0,1.58-1.27,3.01-3.01,3.01h-43.83v19.62h36.08c1.58,0,3.01,1.42,3.01,3.01v17.25c0,1.74-1.42,3.01-3.01,3.01h-36.08v21.36h43.83
			c1.74,0,3.01,1.42,3.01,3.01v17.25c0,1.58-1.27,3.01-3.01,3.01h-65.51c-1.74,0-3.01-1.42-3.01-3.01V1566.62z"/>
		<path class="st2" d="M2789.26,1562.04c15.82,0,27.53,4.91,38.29,14.72c1.42,1.27,1.42,3.17,0.16,4.43l-12.34,12.82
			c-1.11,1.11-2.85,1.11-3.96,0c-5.85-5.22-13.61-8.07-21.36-8.07c-17.88,0-31.01,14.87-31.01,32.6c0,17.56,13.29,32.12,31.17,32.12
			c7.44,0,15.51-2.69,21.2-7.6c1.11-0.95,3.16-0.95,4.11,0.16l12.34,13.13c1.11,1.11,0.95,3.16-0.16,4.27
			c-10.76,10.44-24.37,15.35-38.45,15.35c-31.65,0-57.12-25.16-57.12-56.81C2732.14,1587.51,2757.61,1562.04,2789.26,1562.04z"/>
		<path class="st2" d="M2845.9,1567.42c0-2.06,1.58-3.8,3.8-3.8h18.51c2.06,0,3.8,1.74,3.8,3.8v41.62l35.13-43.83
			c0.63-0.79,2.06-1.58,3.01-1.58h19.94c3.01,0,4.59,3.48,2.85,5.86l-37.03,46.36l40.35,52.53c1.74,2.37,0,5.85-3.01,5.85h-21.84
			c-1.11,0-2.53-0.63-2.85-1.11l-36.55-49.69v47.15c0,2.06-1.74,3.8-3.8,3.8h-18.51c-2.21,0-3.8-1.74-3.8-3.8V1567.42z"/>
	</g>
	<path class="st2" d="M2472.42,1625.01h-817.4c-4.14,0-7.5-3.36-7.5-7.5s3.36-7.5,7.5-7.5h817.4c4.14,0,7.5,3.36,7.5,7.5
		S2476.56,1625.01,2472.42,1625.01z"/>
	<g>
		<path class="st2" d="M192.89,1912.47c0-1.58,1.27-3.01,3.01-3.01h36.87c18.67,0,34.02,12.82,34.02,29.43
			c0,12.18-10.92,21.04-18.36,25c8.39,3.48,21.2,11.23,21.2,25.79c0,17.72-15.67,30.54-34.5,30.54H195.9
			c-1.74,0-3.01-1.42-3.01-3.01V1912.47z M229.92,1954.4c6.01,0,11.08-5.06,11.08-11.39c0-6.33-5.06-10.76-11.08-10.76h-12.34v22.15
			H229.92z M231.97,1997.6c6.17,0,11.39-5.06,11.39-11.55c0-6.33-6.8-11.08-12.97-11.08h-12.82v22.63H231.97z"/>
		<path class="st2" d="M339.88,1907.88c31.65,0,56.96,25.48,56.96,57.12s-25.32,56.81-56.96,56.81c-31.65,0-56.81-25.16-56.81-56.81
			S308.24,1907.88,339.88,1907.88z M339.88,1996.49c17.41,0,31.65-14.24,31.65-31.49c0-17.41-14.24-31.8-31.65-31.8
			c-17.25,0-31.49,14.4-31.49,31.8C308.39,1982.25,322.64,1996.49,339.88,1996.49z"/>
		<path class="st2" d="M415.51,1912.47c0-1.58,1.27-3.01,2.85-3.01h38.61c30.54,0,55.54,24.84,55.54,55.22
			c0,30.7-25,55.54-55.54,55.54h-38.61c-1.58,0-2.85-1.42-2.85-3.01V1912.47z M455.39,1996.8c17.88,0,30.86-14.08,30.86-32.12
			c0-17.88-12.97-31.96-30.86-31.96H440.2v64.08H455.39z"/>
		<path class="st2" d="M549.06,1966.9l-34.97-52.85c-1.27-2.06,0-4.59,2.53-4.59h20.57c1.27,0,2.06,0.79,2.53,1.42l21.99,32.44
			l22-32.44c0.47-0.63,1.11-1.42,2.53-1.42h20.57c2.53,0,3.8,2.53,2.53,4.59l-35.44,52.69v50.48c0,1.58-1.42,3.01-3.01,3.01h-18.83
			c-1.74,0-3.01-1.42-3.01-3.01V1966.9z"/>
	</g>
	<path class="st2" d="M1477.46,1970.85h-817.4c-4.14,0-7.5-3.36-7.5-7.5s3.36-7.5,7.5-7.5h817.4c4.14,0,7.5,3.36,7.5,7.5
		S1481.6,1970.85,1477.46,1970.85z"/>
	<g>
		<path class="st2" d="M192.89,1085.1c0-1.58,1.27-3.01,3.01-3.01h65.51c1.74,0,3.01,1.42,3.01,3.01v17.25
			c0,1.58-1.27,3.01-3.01,3.01h-43.83v19.62h36.08c1.58,0,3.01,1.42,3.01,3.01v17.25c0,1.74-1.42,3.01-3.01,3.01h-36.08v21.36h43.83
			c1.74,0,3.01,1.42,3.01,3.01v17.25c0,1.58-1.27,3.01-3.01,3.01H195.9c-1.74,0-3.01-1.42-3.01-3.01V1085.1z"/>
		<path class="st2" d="M271.84,1188.75l49.53-106.49c0.47-0.95,1.58-1.74,2.69-1.74h1.58c1.11,0,2.21,0.79,2.69,1.74l49.53,106.49
			c0.95,2.06-0.32,4.11-2.69,4.11h-17.56c-2.85,0-4.11-0.95-5.54-3.96l-5.7-12.5h-43.04l-5.7,12.66c-0.79,1.9-2.53,3.8-5.7,3.8
			h-17.41C272.16,1192.86,270.89,1190.8,271.84,1188.75z M336.88,1154.89l-12.03-26.11h-0.16l-11.87,26.11H336.88z"/>
		<path class="st2" d="M390.35,1085.1c0-1.58,1.27-3.01,3.01-3.01h47.31c18.99,0,34.5,15.35,34.5,34.18
			c0,14.56-9.65,26.27-23.42,31.8l21.68,40.19c1.11,2.06,0,4.59-2.69,4.59h-21.04c-1.27,0-2.21-0.79-2.53-1.42l-21.04-41.93H415.2
			v40.35c0,1.58-1.42,3.01-3.01,3.01h-18.83c-1.74,0-3.01-1.42-3.01-3.01V1085.1z M438.62,1129.41c6.49,0,12.03-6.01,12.03-12.66
			c0-6.65-5.54-12.03-12.03-12.03H415.2v24.68H438.62z"/>
		<path class="st2" d="M490.35,1177.83l7.44-13.13c1.27-2.06,4.27-1.74,5.38-0.95c0.63,0.32,12.03,8.7,22.47,8.7
			c6.33,0,10.92-3.96,10.92-9.49c0-6.65-5.54-11.71-16.3-15.98c-13.61-5.38-30.7-15.98-30.7-34.97c0-15.67,12.18-31.49,36.55-31.49
			c16.46,0,29.11,8.39,33.86,11.87c1.9,1.11,1.58,3.96,0.95,5.06l-8.07,12.18c-1.11,1.74-3.96,3.16-5.38,2.06
			c-1.42-0.79-12.98-9.49-22.63-9.49c-5.7,0-9.97,3.8-9.97,8.07c0,5.85,4.75,10.29,17.25,15.35c12.34,4.91,31.96,14.56,31.96,36.08
			c0,16.3-14.08,32.75-37.34,32.75c-20.57,0-31.96-8.54-35.6-12.18C489.56,1180.68,489.09,1180.04,490.35,1177.83z"/>
	</g>
	<path class="st2" d="M825,1143.49H598.87c-4.14,0-7.5-3.36-7.5-7.5s3.36-7.5,7.5-7.5H825c4.14,0,7.5,3.36,7.5,7.5
		S829.14,1143.49,825,1143.49z"/>
	<g>
		<path class="st2" d="M192.89,533.44c0-1.58,1.42-3.01,3.01-3.01h18.83c1.74,0,3.01,1.42,3.01,3.01v39.88h45.25v-39.88
			c0-1.58,1.27-3.01,3.01-3.01h18.83c1.58,0,3.01,1.42,3.01,3.01v104.75c0,1.58-1.42,3.01-3.01,3.01H266
			c-1.74,0-3.01-1.42-3.01-3.01v-41.62h-45.25v41.62c0,1.58-1.27,3.01-3.01,3.01H195.9c-1.58,0-3.01-1.42-3.01-3.01V533.44z"/>
		<path class="st2" d="M300.33,637.09l49.53-106.49c0.47-0.95,1.58-1.74,2.69-1.74h1.58c1.11,0,2.21,0.79,2.69,1.74l49.53,106.49
			c0.95,2.06-0.32,4.11-2.69,4.11h-17.56c-2.85,0-4.11-0.95-5.54-3.96l-5.7-12.5h-43.04l-5.7,12.66c-0.79,1.9-2.53,3.8-5.7,3.8
			h-17.41C300.64,641.2,299.38,639.14,300.33,637.09z M365.36,603.22l-12.03-26.11h-0.16l-11.87,26.11H365.36z"/>
		<path class="st2" d="M428.81,553.7h-22.63c-1.74,0-3.01-1.42-3.01-3.01v-17.25c0-1.58,1.27-3.01,3.01-3.01h70.26
			c1.74,0,3.01,1.42,3.01,3.01v17.25c0,1.58-1.27,3.01-3.01,3.01h-22.63v84.5c0,1.58-1.42,3.01-3.01,3.01h-18.99
			c-1.58,0-3.01-1.42-3.01-3.01V553.7z"/>
	</g>
	<path class="st2" d="M1458.15,591.83H527.04c-4.14,0-7.5-3.36-7.5-7.5s3.36-7.5,7.5-7.5h931.11c4.14,0,7.5,3.36,7.5,7.5
		S1462.3,591.83,1458.15,591.83z"/>
	<g id="Layer_2">
	</g>
</g>
</svg>
